<?xml version="1.0" encoding="utf-8"?>
<!-- Generator: Adobe Illustrator 26.3.1, SVG Export Plug-In . SVG Version: 6.00 Build 0)  -->
<svg version="1.1" id="Layer_1" xmlns="http://www.w3.org/2000/svg" xmlns:xlink="http://www.w3.org/1999/xlink" x="0px" y="0px"
	 viewBox="0 0 612 792" style="enable-background:new 0 0 612 792;" xml:space="preserve">
<style type="text/css">
	.st0{fill:#221F1F;}
	.st1{fill:#22763B;}
	.st2{fill:#163119;}
	.st3{fill:#39A849;}
</style>
<g>
	<path class="st0" d="M255.2,440.8l-0.7-2.6c-2.4-1.7-5-3.3-7.7-4.6c-79.7-39.6-2.9-171.8,63.9-184.2c5.4-1.2,8.6-6.8,6.7-11.9
		l-5.5-16.1c-39.4,13.4-58.8,9.2-68,8.8c-20.1-1-30.4-9,12.7-32c15.8-8.4,22.7-14.2,59.3-14.3c21.6,0,25.7-26.3,45.8-28.4
		c91.2-9.2,20.1,53.5,32,104.8c0.1,0.5,0.4,1,0.8,1.6c2.9,4.1,8.6,5.1,12.8,2.4c27-17.1,60.1-11.8,46.6,14.5
		c-4.5,8.8-12,15.6-21.1,19.5c-22.4,9.7-42.2,22.3-64.3,31.1c-6.5,2.6-17,7.7-22.6,12c-17.8,13.5-32.6,32.6-40.9,48.5
		c-3.9,7.6-8.9,17.3-8.4,25.8c2.1,26.9,18.1,98.8-24.3,69.2C258.4,475,256.8,458,255.2,440.8z"/>
	<path class="st0" d="M215.6,382.7c-3.1-1.3-6.3-2.2-9.6-2.6c-1.7-0.2-3.5-0.3-5,0.4c-2.3,1-3.8,3.4-4.2,5.9c-0.3,2.5,0.4,5,1.4,7.3
		c0.5,1.1,1.1,2.2,1.3,3.4c0.6,4.5-4.9,7.6-5.4,12c-0.4,3.5,2.9,6.9,6.4,6.6c1.4-0.1,2.8-0.8,4.1-0.5c1.5,0.3,2.5,1.7,3.7,2.8
		c2.7,2.5,6.9,3.3,10.3,1.9c3.4-1.3,5.9-4.8,6.2-8.4"/>
</g>
<g>
	<rect x="177.3" y="443" class="st1" width="229.6" height="200.8"/>
	<path class="st2" d="M415.9,448.1H168.3c-13.7,0-24.8-11.1-24.8-24.8V377c0-13.7,11.1-24.8,24.8-24.8h247.6
		c13.7,0,24.8,11.1,24.8,24.8v46.4C440.6,437,429.5,448.1,415.9,448.1z"/>
	<path class="st1" d="M415.9,437.9H168.3c-13.7,0-24.8-11.1-24.8-24.8v-46.4c0-13.7,11.1-24.8,24.8-24.8h247.6
		c13.7,0,24.8,11.1,24.8,24.8v46.4C440.6,426.8,429.5,437.9,415.9,437.9z"/>
	<path class="st3" d="M237.5,486.5v127.9c0,11.3-9.1,20.4-20.4,20.4h-2.7c-11.3,0-20.4-9.1-20.4-20.4V486.5
		c0-11.3,9.1-20.4,20.4-20.4h2.7C228.4,466.1,237.5,475.2,237.5,486.5z"/>
</g>
</svg>
