<?xml version="1.0" encoding="utf-8"?>
<!-- Generator: Adobe Illustrator 26.3.1, SVG Export Plug-In . SVG Version: 6.00 Build 0)  -->
<svg version="1.1" id="Layer_1" xmlns="http://www.w3.org/2000/svg" xmlns:xlink="http://www.w3.org/1999/xlink" x="0px" y="0px"
	 viewBox="0 0 612 792" style="enable-background:new 0 0 612 792;" xml:space="preserve">
<style type="text/css">
	.st0{fill:#231F20;}
	.st1{fill:#F3726F;}
</style>
<path class="st0" d="M46.17,473.8l2.36-3.44c-0.37-4.54-1.06-9.06-2.14-13.49C14.2,324.91,243.92,284.52,324.15,350.22
	c6.68,5.11,16.31,3.34,20.44-3.93l13.36-22.2c-54.41-32.73-68.58-59.52-77.11-70.73c-18.57-24.43-19.34-44.31,49.85-16.62
	c25.44,10.18,38.92,12.46,75.01,55.12c21.22,25.15,56,4.13,78.2,25.54c100.41,97.26-42.64,76.04-90.78,140.49
	c-0.43,0.57-0.78,1.42-1.04,2.44c-1.9,7.4,2.52,14.99,9.81,17.29c46.56,14.66,72.89,58.42,28.96,68.6
	c-14.64,3.39-30.05,1.36-43.49-5.36c-33.33-16.66-67.47-27.26-99.51-44.39c-9.43-5.04-25.73-12.25-36.16-14.6
	c-33.33-7.49-70.05-6.03-96.79,0c-12.66,2.86-28.94,6.71-38.41,15.58C87.14,526.3,19.07,615.71,11.86,537.16
	C9.46,511.03,27.75,492.49,46.17,473.8z"/>
<path class="st0" d="M74.98,370.39c-1.48-4.85-3.65-9.48-6.44-13.72c-1.43-2.18-3.1-4.31-5.41-5.52c-3.41-1.78-7.73-1.15-10.98,0.91
	s-5.53,5.37-7.14,8.86c-0.79,1.71-1.46,3.52-2.73,4.92c-4.61,5.08-13.62,1.78-19.38,5.5c-4.52,2.92-5.22,10.25-1.34,13.98
	c1.54,1.48,3.64,2.46,4.63,4.35c1.1,2.11,0.46,4.64,0.36,7.01c-0.25,5.61,2.94,11.23,7.87,13.9c4.94,2.67,11.38,2.26,15.94-1.02"/>
<path class="st1" d="M526.67,176.58c0,10.51-3.2,21-9.55,28.85l-20.93,25.83l-44.76,55.25l-42.88-57.68l-18.31-24.63
	c-11.84-15.93-11.42-41.2,0.94-56.46c6.01-7.41,13.72-11.1,21.44-11.1c8.15,0,16.3,4.12,22.38,12.31l18.31,24.63l20.93-25.83
	c12.36-15.26,31.98-14.72,43.82,1.21C523.81,156.7,526.67,166.65,526.67,176.58z"/>
</svg>
