<?xml version="1.0" encoding="UTF-8"?>
<svg id="Layer_1" xmlns="http://www.w3.org/2000/svg" viewBox="0 0 612 792">
    <defs>
        <style>.cls-1{fill:gold;}</style>
    </defs>
    <path class="cls-1"
          d="M97.24,304.04l-33.6,20.24c-2.36,1.38-4.91,3.73-3.73,6.09,.79,1.96,3.54,2.16,5.7,2.16l17.68-.59c-6.09,8.06-15.33,13.75-25.35,15.52-5.31,.98-10.61,.79-15.72,2.55-1.57,.59-3.54,1.77-3.34,3.54,0,2.55,3.93,2.95,6.48,2.36l12.97-2.55c-.39,2.95-3.14,4.91-5.89,5.89s-5.7,1.18-8.45,2.36c-.98,.39-1.96,1.18-2.16,2.36,0,1.18,.98,2.16,1.96,2.95,4.91,3.34,11.2,4.13,17.29,4.13,12.38,0,24.76-1.96,36.35-6.29-4.32,1.18-7.47,6.09-6.48,10.41,12.77,1.77,26.33-3.73,34.19-13.95"/>
    <path class="cls-1"
          d="M350.1,391.54c-30.8-12.77-65.82-.4-96.22,13.31s-63.03,29.23-95.66,22.35c-.23,12.11-3.27,24.5-10.65,34.11s-19.57,15.97-31.58,14.4c-6.87-.9-13.27-4.22-20.16-4.98-10.44-1.16-20.85,3.84-28.4,11.15-7.55,7.31-12.64,16.75-17.17,26.23-4.63,9.68-11.56,21.31-22.25,20.28-7.1-.69-12.43-7.37-13.89-14.35s.1-14.2,1.73-21.14c2.49-10.63,5.31-21.56,12.03-30.17,9.87-12.64,26.22-17.97,39.35-27.18,20.79-14.59,33.37-40.16,32.24-65.53h0c-.37-4.54-1.06-9.06-2.14-13.49-32.19-131.96,197.53-172.35,277.76-106.65,6.68,5.11,16.31,3.34,20.44-3.93l13.36-22.2c-54.41-32.73-68.58-59.52-77.11-70.73-18.57-24.43-19.34-44.31,49.85-16.62,25.44,10.18,38.92,12.46,75.01,55.12,21.22,25.15,56,4.13,78.2,25.54,100.41,97.26-42.64,76.04-90.78,140.49l1.93-.53c29.33-3.89,59.08-4.61,88.57-2.17,13.36,1.11,26.98,2.96,38.88,9.12,8.23,4.25,15.68,10.9,18.63,19.68,3.74,11.1-1.08,24.47-11.03,30.64-9.96,6.17-24.07,4.54-32.35-3.74-4.03-4.03-6.77-9.39-11.46-12.62-8.74-6.02-20.53-2.64-30.73,.32-37.28,10.84-76.98,12.21-115.43,6.26-12.24-1.89-24.16-5.5-35.48-10.53l-5.48-2.44h0Z"/>
</svg>