<svg width="164" height="131" viewBox="0 0 164 131" fill="none" xmlns="http://www.w3.org/2000/svg">
<path fill-rule="evenodd" clip-rule="evenodd" d="M-87.8182 3.71169C-87.2345 1.52292 -85.2523 0 -82.987 0H-48.8421C-45.5569 0 -43.1644 3.11408 -44.0109 6.28831L-52.1268 36.7229C-52.9733 39.8972 -50.5808 43.0112 -47.2956 43.0112H-14.6338C-12.3686 43.0112 -10.3863 41.4883 -9.80263 39.2995L-0.312538 3.71169C0.271133 1.52292 2.25339 0 4.51864 0H38.6636C41.9487 0 44.3412 3.11408 43.4948 6.28831L35.3788 36.7229C34.5324 39.8972 36.9249 43.0112 40.21 43.0112H72.8718C75.1371 43.0112 77.1193 41.4883 77.703 39.2995L87.1931 3.71169C87.7767 1.52292 89.759 0 92.0243 0H126.169C129.454 0 131.847 3.11408 131 6.28831L122.884 36.7229C122.038 39.8972 124.43 43.0112 127.716 43.0112H158.798C162.084 43.0112 164.476 46.1253 163.63 49.2996L154.431 83.7939C153.847 85.9827 151.865 87.5056 149.6 87.5056H113.876C111.611 87.5056 109.628 89.0285 109.045 91.2173L99.5547 126.805C98.971 128.994 96.9887 130.517 94.7235 130.517H60.5786C57.2934 130.517 54.9009 127.403 55.7474 124.229L63.8633 93.7939C64.7097 90.6197 62.3172 87.5056 59.0321 87.5056H26.3703C24.105 87.5056 22.1228 89.0285 21.5391 91.2173L12.049 126.805C11.4653 128.994 9.48308 130.517 7.21783 130.517H-26.9271C-30.2123 130.517 -32.6047 127.403 -31.7583 124.229L-23.6424 93.7939C-22.7959 90.6197 -25.1884 87.5056 -28.4735 87.5056H-61.1353C-63.4006 87.5056 -65.3828 89.0285 -65.9665 91.2173L-75.4566 126.805C-76.0403 128.994 -78.0225 130.517 -80.2878 130.517H-114.433C-117.718 130.517 -120.11 127.403 -119.264 124.229L-110.065 89.7342C-109.482 87.5454 -107.499 86.0225 -105.234 86.0225H-69.5103C-67.245 86.0225 -65.2628 84.4995 -64.6791 82.3108L-56.2716 50.7827C-55.4251 47.6085 -57.8176 44.4944 -61.1028 44.4944H-92.1855C-95.4707 44.4944 -97.8631 41.3803 -97.0167 38.2061L-87.8182 3.71169ZM68.0081 79.7342C67.1616 82.9084 69.5541 86.0225 72.8392 86.0225H105.501C107.766 86.0225 109.749 84.4995 110.332 82.3108L118.74 50.7827C119.586 47.6085 117.194 44.4944 113.909 44.4944H81.2467C78.9815 44.4944 76.9992 46.0173 76.4156 48.2061L68.0081 79.7342ZM-19.4976 79.7342C-20.3441 82.9084 -17.9516 86.0225 -14.6664 86.0225H17.9954C20.2607 86.0225 22.2429 84.4995 22.8266 82.3108L31.2341 50.7827C32.0805 47.6085 29.688 44.4944 26.4029 44.4944H-6.25893C-8.52419 44.4944 -10.5064 46.0173 -11.0901 48.2061L-19.4976 79.7342Z" fill="#CBE4C4" fill-opacity="0.08"/>
</svg>
