<?xml version="1.0" encoding="UTF-8"?>
<svg id="Layer_1" xmlns="http://www.w3.org/2000/svg" viewBox="0 0 28.35 22">
    <defs>
        <style>.cls-1{fill:#d4af37;}</style>
    </defs>
    <path class="cls-1"
          d="M12.58,16.87c.67,2.1,10.48,1.64,6.11,4.49-3.68,1.42-7.83-2.03-8.92-5.09-2.35-1.08-4.91,.83-6.14-3.38C1.59,5.95,13.55,3.79,17.69,7.18c.34,.26,.83,.17,1.04-.2l.68-1.13c-8.95-5.15-3.44-8.58,2.43-1.64,1.08,1.28,2.85,.21,3.98,1.3,5.11,4.95-2.17,3.87-4.62,7.15-2.67,3.57-7.95,5.93-11.87,8.06-.86,.56-2.86,1.2-2.89-.16,.14-.93,1.98-.8,2.19-1.71-2.85,.26-2.11-1.86,.32-1.76"/>
    <path class="cls-1"
          d="M3.72,11.69l-1.71,1.03c-.12,.07-.25,.19-.19,.31,.04,.1,.18,.11,.29,.11l.9-.03c-.31,.41-.78,.7-1.29,.79-.27,.05-.54,.04-.8,.13-.08,.03-.18,.09-.17,.18,0,.13,.2,.15,.33,.12l.66-.13c-.02,.15-.16,.25-.3,.3s-.29,.06-.43,.12c-.05,.02-.1,.06-.11,.12,0,.06,.05,.11,.1,.15,.25,.17,.57,.21,.88,.21,.63,0,1.26-.1,1.85-.32-.22,.06-.38,.31-.33,.53,.65,.09,1.34-.19,1.74-.71"/>
</svg>