<?xml version="1.0" standalone="no"?>
<!DOCTYPE svg PUBLIC "-//W3C//DTD SVG 20010904//EN"
 "http://www.w3.org/TR/2001/REC-SVG-20010904/DTD/svg10.dtd">
<svg version="1.0" xmlns="http://www.w3.org/2000/svg"
 width="853.000000pt" height="853.000000pt" viewBox="0 0 853.000000 853.000000"
 preserveAspectRatio="xMidYMid meet">
<metadata>
Created by potrace 1.14, written by Peter Selinger 2001-2017
</metadata>
<g transform="translate(0.000000,853.000000) scale(0.100000,-0.100000)"
fill="#000000" stroke="none">
<path d="M260 7680 l0 -850 1015 0 1015 0 0 -3415 0 -3415 970 0 970 0 2 1692
3 1693 924 -1693 923 -1692 1094 0 1094 0 -14 23 c-8 12 -474 805 -1036 1762
l-1020 1740 108 27 c181 45 368 126 563 244 252 151 444 337 628 609 222 328
334 640 388 1085 22 180 25 650 5 810 -73 594 -262 1031 -621 1437 -314 355
-810 630 -1321 732 -297 59 -87 55 -3012 58 l-2678 3 0 -850z m4496 -690 c313
-21 557 -98 780 -246 257 -169 377 -450 377 -879 0 -264 -42 -457 -136 -625
-49 -88 -166 -211 -251 -265 -153 -97 -348 -176 -542 -216 -85 -19 -144 -22
-426 -26 l-328 -5 0 1136 0 1136 193 0 c105 0 255 -5 333 -10z"/>
</g>
</svg>
